<svg width="22" height="22" viewBox="0 0 22 22" fill="none" xmlns="http://www.w3.org/2000/svg">
<path d="M15.2331 0C15.2843 0 15.3355 0 15.3896 0C15.5152 1.55149 14.923 2.71075 14.2033 3.55026C13.4971 4.38396 12.5301 5.19255 10.9661 5.06986C10.8617 3.5406 11.4549 2.46731 12.1736 1.62974C12.8402 0.849163 14.0623 0.154569 15.2331 0Z" fill="white"/>
<path d="M19.968 16.1487C19.968 16.1641 19.968 16.1777 19.968 16.1921C19.5285 17.5234 18.9015 18.6643 18.1364 19.7231C17.4379 20.6843 16.582 21.9779 15.0537 21.9779C13.7331 21.9779 12.8559 21.1287 11.5025 21.1055C10.0708 21.0823 9.28344 21.8156 7.97444 22.0001C7.8247 22.0001 7.67496 22.0001 7.52812 22.0001C6.5669 21.861 5.79115 21.0997 5.22601 20.4138C3.55956 18.387 2.27181 15.769 2.03223 12.4187C2.03223 12.0903 2.03223 11.7628 2.03223 11.4343C2.13366 9.03657 3.29873 7.08707 4.84731 6.14227C5.6646 5.63992 6.78812 5.21195 8.03916 5.40323C8.57533 5.48631 9.12308 5.66986 9.60321 5.85148C10.0582 6.02634 10.6272 6.33644 11.1663 6.32002C11.5315 6.30939 11.8947 6.11908 12.2628 5.9848C13.3409 5.59548 14.3977 5.14916 15.7908 5.35879C17.465 5.6119 18.6532 6.35576 19.3874 7.50344C17.9712 8.40477 16.8515 9.76305 17.0428 12.0825C17.2128 14.1895 18.4378 15.4222 19.968 16.1487Z" fill="white"/>
</svg>
